<?xml version="1.0" standalone="no"?><!DOCTYPE svg PUBLIC "-//W3C//DTD SVG 1.1//EN" "http://www.w3.org/Graphics/SVG/1.1/DTD/svg11.dtd"><svg t="1719843248826" class="icon" viewBox="0 0 1024 1024" version="1.1" xmlns="http://www.w3.org/2000/svg" p-id="60643" data-spm-anchor-id="a313x.search_index.0.i6.224b3a81s3beZO" xmlns:xlink="http://www.w3.org/1999/xlink" width="200" height="200"><path d="M512 0q139.43 0 258.29 54.86 116.57 52.57 184 142.85Q1024 290.29 1024 398.86q0 108.57-69.71 202.28-67.43 89.15-184 142.86Q651.43 797.71 512 797.71q-42.29 0-83.43-4.57l-216 140.57q-18.28 10.29-24 6.29-5.71-4 1.14-26.86l43.43-178.28Q125.71 680 64 592 0 501.71 0 398.86q0-108.57 69.71-201.15 67.43-90.28 184-142.85Q372.57 0 512 0z m288 393.14l72-69.71q5.71-6.86 5.71-16t-6.29-16q-6.28-6.86-15.42-6.86t-16 5.72l-93.71 91.42v-75.42q0-10.29-6.86-16.57-6.86-6.29-16.58-6.29-9.72 0-16.57 6.29-6.86 6.28-6.86 16.57v124.57q-1.14 5.71 0 11.43V512q0 10.29 6.86 16.58 6.86 6.28 16.57 6.28 9.72 0 16.58-6.28 6.86-6.29 6.86-16.58v-66.29l20.57-20.57 68.57 99.43q8 10.29 21.14 9.72 13.14-0.58 18.86-13.15 5.72-12.57-1.13-22.85l-74.29-105.15z m-145.14 93.72H584V307.43q0-10.29-6.86-16.57-6.86-6.29-16-6.29t-15.43 6.29q-6.28 6.28-7.42 16.57v202.28q0 10.29 6.86 16.58 6.86 6.28 17.14 6.28h92.57q10.28 0 17.14-6.28 6.86-6.29 6.86-16T672 493.72q-6.86-6.86-17.14-6.86z m-284.57-52.57l33.14-84.58 32 84.58h-65.14z m123.42 22.85V456q0-8-5.71-14.86L435.43 304q-2.29-9.14-10.86-15.42-8.57-6.29-18.85-6.86-10.29-0.58-19.43 5.71t-12.57 15.44l-81.14 198.85q-3.43 9.15 0 18.29 3.43 9.14 12.57 12 9.15 2.86 17.72 0 8.57-2.86 13.14-13.14l14.86-38.86h101.71l14.86 38.86q3.43 12.57 17.15 14.85 13.71 2.29 22.28-8 8.57-10.28 2.85-24l-16-44.57zM331.43 307.43q0-10.29-6.86-16.57-6.86-6.29-16-6.29H149.71q-9.14 0-16 6.29-6.86 6.28-6.86 16 0 9.71 6.86 16.57 6.85 6.86 16 6.86h57.15v182.85q0 9.15 6.85 15.44 6.85 6.28 16 6.28t16-6.28q6.85-6.29 6.85-16.58V330.29h56q9.14 0 16-6.86 6.86-6.86 6.86-16z" p-id="60644" data-spm-anchor-id="a313x.search_index.0.i4.224b3a81s3beZO" class="" fill="#1296db"></path></svg>